<svg width="24" height="20" viewBox="0 0 24 20" fill="none" xmlns="http://www.w3.org/2000/svg">
<g id="mdi:user-plus" clip-path="url(#clip0_746_3467)">
<path id="Vector" d="M13.0003 12.5C11.6881 12.5 10.1524 12.6309 10.0355 13.3333C9.87533 13.9583 10.351 13.5417 10.7087 14.1667C11.3927 15 10.9302 16.3343 10.7087 16.6667C10.292 17.2917 9.32686 17.1157 9.25033 17.2917C8.7127 18.5281 9.04199 20 9.04199 20H23.0003V17.5C23.0003 14.1625 16.3378 12.5 13.0003 12.5ZM6.75033 14.1667V10.8333H4.25033V14.1667H0.916992V16.6667H4.25033V20H6.75033V16.6667H10.0837L10.0355 14.1667M13.0003 10C14.3264 10 15.5982 9.47322 16.5359 8.53553C17.4735 7.59785 18.0003 6.32608 18.0003 5C18.0003 3.67392 17.4735 2.40215 16.5359 1.46447C15.5982 0.526784 14.3264 0 13.0003 0C11.6742 0 10.4025 0.526784 9.46479 1.46447C8.52711 2.40215 8.00033 3.67392 8.00033 5C8.00033 6.32608 8.52711 7.59785 9.46479 8.53553C10.4025 9.47322 11.6742 10 13.0003 10Z" fill="#83DFFF"/>
</g>
<defs>
<clipPath id="clip0_746_3467">
<rect width="22.0833" height="20" fill="white" transform="translate(0.958496)"/>
</clipPath>
</defs>
</svg>
