<svg width="1699" height="1008" viewBox="0 0 1699 1008" fill="none" xmlns="http://www.w3.org/2000/svg">
<g clip-path="url(#clip0_50_824)">
<mask id="mask0_50_824" style="mask-type:luminance" maskUnits="userSpaceOnUse" x="-332" y="-30" width="2031" height="1151">
<path d="M1698.41 -29.5956H-331V1120.4H1698.41V-29.5956Z" fill="white"/>
</mask>
<g mask="url(#mask0_50_824)">
<mask id="mask1_50_824" style="mask-type:luminance" maskUnits="userSpaceOnUse" x="-407" y="-30" width="2122" height="1156">
<path d="M1714.51 -29.5956H-406.269V1125.58H1714.51V-29.5956Z" fill="white"/>
</mask>
<g mask="url(#mask1_50_824)">
<path fill-rule="evenodd" clip-rule="evenodd" d="M-621.135 744.19L-598.47 736.134L-564.971 737.569L-521.588 729.11L-473.62 711.606L-430.593 737.056L-359.241 741.774L-269.242 757.259L-210.237 763.714L-12.3164 776.432L180.344 702.006L246.13 641.077L280.13 606.781C280.13 606.781 342.857 574.954 353.769 566.582C364.677 558.209 400.99 513.902 400.99 513.902L427.52 482.36L466.15 433.96L509.437 398.603L560.632 346.329L598.146 307.405L633.862 274.902L662.385 237.824L685.841 228.592L702.96 230.392L749.851 273.145L766.112 285.287L789.091 309.481L801.499 324.544L827.412 349.413L831.3 366.178L849.728 394.389L869.149 423.88L898.827 445.477L918.831 449.66L932.055 467.535L932.305 490.181C932.305 490.181 945.201 500.785 947.503 505.192C949.81 509.603 991.574 550.542 991.574 550.542L1011.79 571.014L1036.76 579.657L1068.33 586.93L1095.61 599.98L1113.91 625.86L1133.87 632.431L1153.36 647.283L1179.06 662.506L1224.04 692.847C1224.04 692.847 1237.18 704.922 1234.42 709.184C1231.66 713.439 1249.63 719.513 1252.11 724.67C1254.61 729.828 1295.58 767.847 1295.58 767.847L1367.92 760.769L1416.61 783.068L1444.96 779.582L1525.58 733.22L1605.81 778.578L1704.56 748.698C1704.56 748.698 1822.42 836.628 1831.34 837.887C1840.26 839.143 1876.75 894.169 1876.75 894.169C1876.75 894.169 1735.31 948.283 1728.44 945.345C1721.57 942.412 1571.27 845.163 1571.27 845.163C1571.27 845.163 1503.66 846.148 1495.39 847.023C1487.11 847.894 1434.83 897.724 1434.83 897.724L1390.08 950.854C1390.08 950.854 1417.17 1031.71 1413.91 1033.15C1410.65 1034.59 1645.52 1256.67 1645.52 1256.67L-685.354 1220.64L-621.135 744.19Z" fill="#F5F5F5"/>
<path fill-rule="evenodd" clip-rule="evenodd" d="M-621.135 744.19L-598.47 736.134L-564.971 737.569L-521.588 729.11L-473.62 711.606L-430.593 737.056L-359.241 741.774L-269.242 757.259L-210.237 763.714L-12.3164 776.432L180.344 702.006L246.13 641.077L280.13 606.781C280.13 606.781 342.857 574.954 353.769 566.582C364.677 558.209 400.99 513.902 400.99 513.902L427.52 482.36L466.15 433.96L509.437 398.603L560.632 346.329L598.146 307.405L633.862 274.902L662.385 237.824L685.841 228.592L702.96 230.392L749.851 273.145L766.112 285.287L789.091 309.481L801.499 324.544L827.412 349.413L831.3 366.178L849.728 394.389L869.149 423.88L898.827 445.477L918.831 449.66L932.055 467.535L932.305 490.181C932.305 490.181 945.201 500.785 947.503 505.192C949.81 509.603 991.574 550.542 991.574 550.542L1011.79 571.014L1036.76 579.657L1068.33 586.93L1095.61 599.98L1113.91 625.86L1133.87 632.431L1153.36 647.283L1179.06 662.506L1224.04 692.847C1224.04 692.847 1237.18 704.922 1234.42 709.184C1231.66 713.439 1249.63 719.513 1252.11 724.67C1254.61 729.828 1295.58 767.847 1295.58 767.847L1367.92 760.769L1416.61 783.068L1444.96 779.582L1525.58 733.22L1605.81 778.578L1704.56 748.698C1704.56 748.698 1822.42 836.628 1831.34 837.887C1840.26 839.143 1876.75 894.169 1876.75 894.169C1876.75 894.169 1735.31 948.283 1728.44 945.345C1721.57 942.412 1571.27 845.163 1571.27 845.163C1571.27 845.163 1503.66 846.148 1495.39 847.023C1487.11 847.894 1434.83 897.724 1434.83 897.724L1390.08 950.854C1390.08 950.854 1417.17 1031.71 1413.91 1033.15C1410.65 1034.59 1645.52 1256.67 1645.52 1256.67L-685.354 1220.64L-621.135 744.19Z" fill="white"/>
</g>
<mask id="mask2_50_824" style="mask-type:luminance" maskUnits="userSpaceOnUse" x="-407" y="-30" width="2122" height="1156">
<path d="M1714.51 -29.5956H-406.269V1125.58H1714.51V-29.5956Z" fill="white"/>
</mask>
<g mask="url(#mask2_50_824)">
<path d="M703.84 408.225L667.259 406.604V462.416L599.604 497.244V525.641L626.809 547.992L718.835 720.742L736.044 755.956H763.185L874.802 896.54C874.802 896.54 953.715 864.341 951.837 858.319C949.96 852.297 918.021 798.104 918.021 798.104L857.902 692.729L834.523 603.917L810.932 503.058L785.287 491.016L756.347 493.94L763.964 579.831L748.932 593.379L728.265 539.186L713.699 485.415L703.84 408.225Z" fill="#5E6C76"/>
</g>
<mask id="mask3_50_824" style="mask-type:luminance" maskUnits="userSpaceOnUse" x="-407" y="-30" width="2122" height="1156">
<path d="M1714.51 -29.5956H-406.269V1125.58H1714.51V-29.5956Z" fill="white"/>
</mask>
<g mask="url(#mask3_50_824)">
<path fill-rule="evenodd" clip-rule="evenodd" d="M427.423 485.923L414.079 548.238L483.876 554.632L536.658 629.397L554.722 694.398L587.666 759.595L640.807 749.013L705.771 787.056L753.264 841.961C753.264 841.961 809.293 882.285 806.044 871.294C802.794 860.301 840.52 889.698 840.52 889.698L876.484 928.883L920.032 875.191L939.913 811.834C939.913 811.834 978.244 814.765 977.572 823.966C976.899 833.171 1016.36 864.19 1016.36 864.19L1059.91 866.541C1059.91 866.541 1122.92 851.82 1129.22 861.096C1135.53 870.373 1168.94 876.205 1168.94 876.205C1168.94 876.205 1211.75 907.474 1218.13 906.356C1224.51 905.243 1274.34 888.338 1274.34 888.338L1323 890.207L1365.02 915.514L1417.04 929.707C1417.04 929.707 1393.03 961.045 1383.73 965.696C1374.44 970.349 1365.55 1007.76 1365.55 1007.76L1404.55 1023.29L1319.63 1057.84L1219.07 1157.24L1154.95 1169.82L279.508 1229.37L-6.39609 1174.3L36.5245 1099.73C36.5245 1099.73 -19.2173 1077.75 -28.1192 1078.82C-37.0258 1079.89 11.4316 1012.02 11.4316 1012.02C11.4316 1012.02 -196.598 897.715 -202.906 900.511C-209.207 903.304 -62.5091 816.631 -62.5091 816.631L53.3109 766.012L134.23 732.77L200.812 683.631L262.972 631.197L298.638 597.837L344.545 574.871L427.423 485.923Z" fill="#5E6C76"/>
</g>
<mask id="mask4_50_824" style="mask-type:luminance" maskUnits="userSpaceOnUse" x="-407" y="-30" width="2122" height="1156">
<path d="M1714.51 -29.5956H-406.269V1125.58H1714.51V-29.5956Z" fill="white"/>
</mask>
<g mask="url(#mask4_50_824)">
<path fill-rule="evenodd" clip-rule="evenodd" d="M-474.451 959.605C-467.533 957.387 -362.406 882.022 -354.107 885.348C-345.808 888.674 -294.328 908.582 -276.644 913.057C-258.961 917.528 -153.535 901.973 -153.535 901.973C-153.535 901.973 -78.8375 936.332 -67.7735 940.764C-56.7095 945.197 52.5685 996.179 56.7193 999.504C60.8701 1002.83 33.2053 1017.24 22.1389 1032.76C11.0725 1048.27 53.4098 1074.88 57.1387 1078.2C60.8701 1081.52 53.9521 1099.25 51.1873 1107.01C48.4225 1114.77 35.9725 1134.72 35.9725 1134.72C35.9725 1134.72 -463.383 1156.89 -464.766 1150.24C-466.152 1143.58 -474.451 959.605 -474.451 959.605Z" fill="#515A60"/>
</g>
<mask id="mask5_50_824" style="mask-type:luminance" maskUnits="userSpaceOnUse" x="-407" y="-30" width="2122" height="1156">
<path d="M1714.51 -29.5956H-406.269V1125.58H1714.51V-29.5956Z" fill="white"/>
</mask>
<g mask="url(#mask5_50_824)">
<path fill-rule="evenodd" clip-rule="evenodd" d="M1312.56 959.763C1315.79 958.901 1365.32 915.591 1368.87 916.561C1372.42 917.532 1435.14 857.23 1438.37 855.509C1441.6 853.786 1470.12 825.448 1470.12 825.448C1470.12 825.448 1494.28 820.372 1498.59 825.448C1502.9 830.523 1531.93 822.753 1545.91 823.192C1559.89 823.63 1554.51 812.378 1568.49 823.174C1582.47 833.971 1579.24 827.08 1595.37 837.418C1611.5 847.755 1629.78 858.097 1644.84 864.127C1659.9 870.156 1670.65 864.986 1678.18 877.049C1685.7 889.11 1704.22 902.037 1709.36 903.758C1714.51 905.482 1724.42 903.756 1726.57 908.065C1728.72 912.375 1757.75 1142.42 1747 1139.84C1736.25 1137.26 1426.55 1130.28 1427.62 1125.58C1428.7 1120.88 1446.97 1070.91 1438.37 1068.32C1429.77 1065.74 1396.43 1058.84 1402.89 1048.51C1409.34 1038.17 1439.45 1023.52 1421.17 1017.49C1402.89 1011.46 1365.55 1007.76 1365.55 1007.76L1312.56 959.763Z" fill="#5E6C76"/>
</g>
<mask id="mask6_50_824" style="mask-type:luminance" maskUnits="userSpaceOnUse" x="-407" y="-30" width="2122" height="1156">
<path d="M1714.51 -29.5956H-406.269V1125.58H1714.51V-29.5956Z" fill="white"/>
</mask>
<g mask="url(#mask6_50_824)">
<path fill-rule="evenodd" clip-rule="evenodd" d="M115.088 1078.92L154.36 1026.45L199.216 1049.11L248.837 1064.28L258.043 1087.31L320.532 1076.44L345.147 1080.91L363.811 1068.42L377.944 1069.8L395.323 1053.83L437.798 1028.08L551.446 985.218L553.035 992.625L632.669 966.188L645.425 968.979C645.425 968.979 651.75 968.313 655.187 966.559C658.627 964.802 773.322 922.026 773.322 922.026L823.946 912.54C823.946 912.54 850.56 906.715 860.522 900.333C870.489 893.956 882.997 897.545 882.997 897.545L909.758 899.758C909.758 899.758 994.577 866 1013.76 862.751C1032.94 859.499 1017.74 879.002 1017.74 879.002L946.997 927.535L969.872 930.403L956.892 946.411L887.216 1009.14L946.272 984.754L939.496 1007.78L998.552 999.328L886.15 1080.52L1000.77 1033.7L894.052 1113.88L1114.57 1015.84L1090.21 1096.09L1115.93 1140.71L1177.31 1186.19L133.104 1254.08L272.195 1151.38L163.249 1180.77L207.132 1131.4C207.132 1131.4 184.642 1125.4 175.596 1128.35C166.549 1131.3 133.054 1136.25 145.021 1124.2C156.994 1112.16 178.45 1085.42 178.45 1085.42L128.358 1095.75L115.088 1078.92Z" fill="#515A60"/>
</g>
<mask id="mask7_50_824" style="mask-type:luminance" maskUnits="userSpaceOnUse" x="-407" y="-30" width="2122" height="1156">
<path d="M1714.51 -29.5956H-406.269V1125.58H1714.51V-29.5956Z" fill="white"/>
</mask>
<g mask="url(#mask7_50_824)">
<path fill-rule="evenodd" clip-rule="evenodd" d="M285.662 667.21L222.928 724.399L254.249 738.9L274.09 787.151L291.12 764.546C291.12 764.546 305.703 799.94 306.134 805.96C306.563 811.978 322.108 768.855 322.108 768.855L370.031 777.197L398.604 824.435L408.461 786.573L362.127 742.116L350.154 709.219L285.662 667.21Z" fill="#515A60"/>
</g>
<mask id="mask8_50_824" style="mask-type:luminance" maskUnits="userSpaceOnUse" x="-407" y="-30" width="2122" height="1156">
<path d="M1714.51 -29.5956H-406.269V1125.58H1714.51V-29.5956Z" fill="white"/>
</mask>
<g mask="url(#mask8_50_824)">
<path fill-rule="evenodd" clip-rule="evenodd" d="M34.7093 831.91L100.291 847.841L171.177 873.424L197.121 850.883L244.101 882.598L263.281 855.15L312.671 919.701L366.726 989.376L364.988 925.213L337.581 904.776L347.15 871.796L434.315 934.314L432.182 972.255L412.151 975.295L421.937 1022.82L380.569 1015.82L377.855 1053.77L310.627 951.508L284.681 1052.21L233.649 910.985L196.449 988.664L130.294 963.631L123.523 915.413L53.3108 901.185L45.6576 873.588L13.7986 875.674L34.7093 831.91Z" fill="#515A60"/>
</g>
<mask id="mask9_50_824" style="mask-type:luminance" maskUnits="userSpaceOnUse" x="-407" y="-30" width="2122" height="1156">
<path d="M1714.51 -29.5956H-406.269V1125.58H1714.51V-29.5956Z" fill="white"/>
</mask>
<g mask="url(#mask9_50_824)">
<path fill-rule="evenodd" clip-rule="evenodd" d="M753.423 683.449C753.423 683.449 785.417 747 780.565 744.269C775.713 741.538 751.071 734.143 751.071 734.143L791.031 806.126L815.664 804.753L834.873 827.611L861.002 873.745L857.801 814.352L891.914 836.483C891.914 836.483 869.562 794.76 866.99 790.121C864.42 785.475 875.393 756.682 875.393 756.682L876.959 743.124L849.62 735.584L840.942 696.704L790.737 631.025L791.661 670.119L753.423 683.449Z" fill="#59666F"/>
</g>
<mask id="mask10_50_824" style="mask-type:luminance" maskUnits="userSpaceOnUse" x="-407" y="-30" width="2122" height="1156">
<path d="M1714.51 -29.5956H-406.269V1125.58H1714.51V-29.5956Z" fill="white"/>
</mask>
<g mask="url(#mask10_50_824)">
<path fill-rule="evenodd" clip-rule="evenodd" d="M983.205 708.995L1021.02 792.974L1064.94 777.195L1080.81 842.31L1113.98 823.277L1149.67 842.31L1200.37 844.599L1214.24 854.709L1323.88 800.294L1380.7 786.861L1414.38 789.202L1470.12 825.446L1539.4 717.06L1440.87 750.901L1439.73 736.498C1439.73 736.498 1420.47 751.386 1413.96 758.953C1407.45 766.518 1381.77 750.786 1381.77 750.786L1363.26 746.324L1305.36 770.626L1280.89 762.895L1260.32 780.663L1237.24 751.506L1199.44 751.224L1166.97 735.095L1138.91 744.882L1108.65 745.111L1071.62 692.003L1051.34 728.417L1041.23 694.118L983.205 708.995Z" fill="#5E6C76"/>
</g>
<mask id="mask11_50_824" style="mask-type:luminance" maskUnits="userSpaceOnUse" x="-407" y="-30" width="2122" height="1156">
<path d="M1714.51 -29.5956H-406.269V1125.58H1714.51V-29.5956Z" fill="white"/>
</mask>
<g mask="url(#mask11_50_824)">
<path fill-rule="evenodd" clip-rule="evenodd" d="M1487.84 761.593L1539.4 717.06L1562.04 727.99C1562.04 727.99 1576.02 744.362 1584.62 746.944C1593.22 749.53 1620.11 747.807 1627.64 747.807C1635.16 747.807 1642.69 745.221 1646.99 746.944C1651.3 748.667 1657.74 752.978 1665.28 750.392C1672.8 747.807 1724.42 730.574 1724.42 730.574C1724.42 730.574 1738.4 868.435 1735.17 864.123C1731.94 859.814 1713.67 828.796 1682.48 826.21C1651.3 823.624 1629.79 822.767 1594.3 820.181C1558.81 817.595 1517.96 813.286 1510.43 815.872C1502.89 818.456 1464.99 826.438 1464.99 826.438L1487.84 761.593Z" fill="#F5F5F5"/>
</g>
<mask id="mask12_50_824" style="mask-type:luminance" maskUnits="userSpaceOnUse" x="-407" y="-30" width="2122" height="1156">
<path d="M1714.51 -29.5956H-406.269V1125.58H1714.51V-29.5956Z" fill="white"/>
</mask>
<g mask="url(#mask12_50_824)">
<path fill-rule="evenodd" clip-rule="evenodd" d="M564.971 387.214C564.971 387.214 594.671 403.704 596.898 412.265C599.128 420.827 597.197 429.107 597.197 429.107C597.197 429.107 565.711 447.591 561.532 455.97C557.35 464.346 557.506 451.066 549.231 444.316C540.958 437.566 534.371 424.176 528.668 423.403C522.962 422.627 561.349 390.424 564.971 387.214Z" fill="#5E6C76"/>
</g>
<mask id="mask13_50_824" style="mask-type:luminance" maskUnits="userSpaceOnUse" x="-407" y="-30" width="2122" height="1156">
<path d="M1714.51 -29.5956H-406.269V1125.58H1714.51V-29.5956Z" fill="white"/>
</mask>
<g mask="url(#mask13_50_824)">
<path fill-rule="evenodd" clip-rule="evenodd" d="M667.259 406.604C667.259 406.604 701.076 384.106 708.656 386.719C716.237 389.334 714.528 395.37 718.629 405.391C722.729 415.415 729.654 423.55 723.187 429.251C716.722 434.957 716.507 449.901 718.079 454.357C719.646 458.814 718.306 475.31 718.306 475.31L729.049 490.585L721.728 507.996L713.697 485.417L707.008 461.391L688.826 463.185L696.98 446.056L672.678 451.815L667.259 406.604Z" fill="#5E6C76"/>
</g>
<mask id="mask14_50_824" style="mask-type:luminance" maskUnits="userSpaceOnUse" x="-407" y="-30" width="2122" height="1156">
<path d="M1714.51 -29.5956H-406.269V1125.58H1714.51V-29.5956Z" fill="white"/>
</mask>
<g mask="url(#mask14_50_824)">
<path fill-rule="evenodd" clip-rule="evenodd" d="M408.202 519.752L381.198 557.676L398.987 557.222L422.376 587.259L427.291 563.304L444.947 562.478L424.926 515.409L408.202 519.752Z" fill="#5E6C76"/>
</g>
<mask id="mask15_50_824" style="mask-type:luminance" maskUnits="userSpaceOnUse" x="-407" y="-30" width="2122" height="1156">
<path d="M1714.51 -29.5956H-406.269V1125.58H1714.51V-29.5956Z" fill="white"/>
</mask>
<g mask="url(#mask15_50_824)">
<path fill-rule="evenodd" clip-rule="evenodd" d="M443.233 494.851L439.813 505.4L458.586 556.286L484.582 558.85L522.571 607.318L443.233 494.851Z" fill="#5E6C76"/>
</g>
<mask id="mask16_50_824" style="mask-type:luminance" maskUnits="userSpaceOnUse" x="-407" y="-30" width="2122" height="1156">
<path d="M1714.51 -29.5956H-406.269V1125.58H1714.51V-29.5956Z" fill="white"/>
</mask>
<g mask="url(#mask16_50_824)">
<path fill-rule="evenodd" clip-rule="evenodd" d="M479.854 480.596L483.016 472.909L522.803 544.445L479.854 480.596Z" fill="#5E6C76"/>
</g>
<mask id="mask17_50_824" style="mask-type:luminance" maskUnits="userSpaceOnUse" x="-407" y="-30" width="2122" height="1156">
<path d="M1714.51 -29.5956H-406.269V1125.58H1714.51V-29.5956Z" fill="white"/>
</mask>
<g mask="url(#mask17_50_824)">
<path fill-rule="evenodd" clip-rule="evenodd" d="M599.605 497.244L574.047 525.206L574.751 559.797L603.664 591.467L601.02 568.053L666.941 636.664L722.003 725.879L695.107 637.717L718.002 641.58L711.515 613.604L731.872 617.361L728.222 598.144L710.954 595.415L709.037 579.116C709.037 579.116 710.775 563.741 707.634 562.201C704.494 560.662 694.428 561.056 694.428 561.056L684.569 557.191L698.749 539.228C698.749 539.228 694.828 513.738 691.311 515.492C687.799 517.245 661.243 532.856 661.243 532.856L653.628 519.022L631.331 503.038L599.605 497.244Z" fill="#59666F"/>
</g>
<mask id="mask18_50_824" style="mask-type:luminance" maskUnits="userSpaceOnUse" x="-407" y="-30" width="2122" height="1156">
<path d="M1714.51 -29.5956H-406.269V1125.58H1714.51V-29.5956Z" fill="white"/>
</mask>
<g mask="url(#mask18_50_824)">
<path fill-rule="evenodd" clip-rule="evenodd" d="M692.844 226.327L678.068 231.439L670.296 226.395L655.093 227.889L646.245 232.592L633.816 244.109L619.804 251.261L614.458 261.222L600.485 267.154L589.182 271.142L579.333 277.235L572.906 285.233L561.826 296.665L549.863 308.803L522.767 324.897L519.083 350.787L513.277 359.497L475.435 385.379L471.983 401.367L466.082 411.603L436.222 422.969L421.59 439.337L426.047 452.901L422.798 473.765L396.083 505.657L373.285 533.044L351.877 553.84L323.916 568.685L295.289 568.138L277.992 573.278L228.568 631.253L205.153 647.428L163.905 685.141L128.662 696.984L95.0262 718.206L60.7037 734.974L23.7128 746.322L-16.0959 742.981L-53.2072 744.327L-82.1785 757.706L-108.826 763.438L-129.05 760.761L-147.176 748.134L-169.919 748.657L-187.573 743.104L-204.815 753.093L-221.64 762.368L-249.982 839.206L-326.984 925.319L-357.949 1004.95L-225.801 955.597L-167.263 926.972L-144.747 901.896L-83.1572 883.816L-63.5409 874.345L-34.9432 858.641L-18.3255 824.493L19.309 796.468L70.0515 782.479L90.5765 769.259L160.321 739.62L185.197 715.473L219.114 691.839L255.107 649.299L290.664 617.911L312.317 602.576L336.229 586.463L355.597 570.863L414.583 502.938L452.699 476.067L496.43 457.58L517.803 443.507L556.935 394.161L576.578 373.671L597.65 350.404L648.277 395.997L654.734 325.332L662.192 312.449L681.396 320.895L693.046 308.732L705.366 312.43L695.478 282.989L659.584 252.346L679.598 255.846L682.189 243.375L691.59 243.587L729.408 280.171L692.844 226.327Z" fill="#515A60"/>
</g>
<mask id="mask19_50_824" style="mask-type:luminance" maskUnits="userSpaceOnUse" x="-407" y="-30" width="2122" height="1156">
<path d="M1714.51 -29.5956H-406.269V1125.58H1714.51V-29.5956Z" fill="white"/>
</mask>
<g mask="url(#mask19_50_824)">
<path fill-rule="evenodd" clip-rule="evenodd" d="M757.507 480.575L756.342 493.942L797.057 557.864L824.927 618.539L835.328 565.473L830.577 530.823L847.327 555.753L852.84 546.248L832.903 496.31L822.734 500.655L820.653 485.316L786.656 462.042L783.009 477.079L757.507 480.575Z" fill="#5E6C76"/>
</g>
<mask id="mask20_50_824" style="mask-type:luminance" maskUnits="userSpaceOnUse" x="-407" y="-30" width="2122" height="1156">
<path d="M1714.51 -29.5956H-406.269V1125.58H1714.51V-29.5956Z" fill="white"/>
</mask>
<g mask="url(#mask20_50_824)">
<path fill-rule="evenodd" clip-rule="evenodd" d="M551.918 567.242L550.513 578.235L614.27 676.786L551.918 567.242Z" fill="#5E6C76"/>
</g>
<mask id="mask21_50_824" style="mask-type:luminance" maskUnits="userSpaceOnUse" x="-407" y="-30" width="2122" height="1156">
<path d="M1714.51 -29.5956H-406.269V1125.58H1714.51V-29.5956Z" fill="white"/>
</mask>
<g mask="url(#mask21_50_824)">
<path fill-rule="evenodd" clip-rule="evenodd" d="M536.549 593.053L535.792 606.914L611.857 708.827L536.549 593.053Z" fill="#5E6C76"/>
</g>
<mask id="mask22_50_824" style="mask-type:luminance" maskUnits="userSpaceOnUse" x="-407" y="-30" width="2122" height="1156">
<path d="M1714.51 -29.5956H-406.269V1125.58H1714.51V-29.5956Z" fill="white"/>
</mask>
<g mask="url(#mask22_50_824)">
<path fill-rule="evenodd" clip-rule="evenodd" d="M834.263 423.855L828.147 442.398L872.572 519.117L868.364 528.528L962.42 663.792L951.399 616.629L937.182 577.102C937.182 577.102 908.883 533.784 904.482 529.693C900.085 525.602 855.453 458.648 855.453 458.648L834.263 423.855Z" fill="#5E6C76"/>
</g>
<mask id="mask23_50_824" style="mask-type:luminance" maskUnits="userSpaceOnUse" x="-407" y="-30" width="2122" height="1156">
<path d="M1714.51 -29.5956H-406.269V1125.58H1714.51V-29.5956Z" fill="white"/>
</mask>
<g mask="url(#mask23_50_824)">
<path fill-rule="evenodd" clip-rule="evenodd" d="M1468.11 845.404L1470.12 825.446L1368.87 916.561L1391.57 920.775L1376.96 936.224C1376.96 936.224 1332.55 951.667 1371.7 955.415C1410.85 959.162 1424.28 957.291 1420.19 959.632C1416.11 961.972 1380.47 978.825 1382.8 979.294C1385.14 979.762 1412.84 981.166 1412.84 981.166L1397.41 993.805L1449.99 989.123C1449.99 989.123 1470.38 1009.72 1470.12 1010.66C1469.86 1011.59 1572.69 937.164 1572.1 935.758C1571.52 934.35 1522.44 912.348 1525.36 910.008C1528.29 907.669 1556.91 866.006 1556.91 866.006C1556.91 866.006 1528.86 851.024 1525.36 851.492C1521.86 851.959 1502.58 851.024 1503.74 849.151C1504.91 847.277 1500.82 836.045 1498.48 836.514C1496.15 836.98 1468.11 845.404 1468.11 845.404Z" fill="#515A60"/>
</g>
</g>
<mask id="mask24_50_824" style="mask-type:luminance" maskUnits="userSpaceOnUse" x="-332" y="-30" width="2031" height="1151">
<path d="M1698.41 -29.5956H-331V1120.4H1698.41V-29.5956Z" fill="white"/>
</mask>
<g mask="url(#mask24_50_824)">
<path fill-rule="evenodd" clip-rule="evenodd" d="M316.781 664.58C316.781 664.58 280.444 663.811 285.662 667.209C290.881 670.61 346.198 709.716 350.658 710.608C355.119 711.502 417.502 776.976 417.502 776.976C417.502 776.976 389.717 715.378 400.865 720.74C412.014 726.099 450.441 747.981 448.214 744.41C445.986 740.835 380.468 689.405 380.468 689.405L316.781 664.58Z" fill="#F5F5F5"/>
</g>
<path fill-rule="evenodd" clip-rule="evenodd" d="M261.459 714.928C261.459 714.928 222.892 715.261 228.236 719.562C233.58 723.863 267.832 742.375 271.814 748.118C275.796 753.862 278.971 780.675 277.773 782.265C276.575 783.854 276.279 788.966 278.029 794.073C279.778 799.179 295.712 813.222 300.492 817.05C305.271 820.878 305.272 831.732 310.847 835.56C316.422 839.388 321.202 849.603 324.389 855.984C327.575 862.365 325.187 867.474 332.355 875.771C339.524 884.068 344.306 901.94 350.677 907.045C357.048 912.15 384.93 951.725 389.71 956.192C394.49 960.659 406.438 993.847 408.032 995.763C409.625 997.679 405.641 1030.23 408.032 1032.78C410.423 1035.34 501.234 978.532 501.234 974.702C501.234 970.872 479.726 956.192 478.93 949.809C478.135 943.426 471.759 889.81 469.371 879.597C466.982 869.384 469.371 846.407 459.015 849.599C448.66 852.792 427.947 866.195 426.354 861.726C424.76 857.257 416.794 840.663 419.98 832.366C423.167 824.069 413.607 797.26 413.607 797.26L404.85 783.111C404.85 783.111 357.846 753.858 350.675 751.943C343.504 750.027 261.459 714.928 261.459 714.928Z" fill="#515A60"/>
</g>
<defs>
<clipPath id="clip0_50_824">
<rect width="2029.41" height="1150" fill="white" transform="translate(-331)"/>
</clipPath>
</defs>
</svg>
