<svg width="49" height="48" viewBox="0 0 49 48" fill="none" xmlns="http://www.w3.org/2000/svg">
<g clip-path="url(#clip0_307_694)">
<path d="M37.0101 23.4713C37.0101 23.4713 38.6976 19.83 38.5139 16.5825C38.3939 14.4975 38.8589 5.47125 25.1301 5.205C11.4051 4.9425 10.5576 12.9825 10.5576 16.9238C10.5576 19.8788 11.8776 22.68 11.8776 22.68C11.8776 22.68 10.7676 22.4175 9.50011 23.895C8.23261 25.3725 8.17261 28.5713 9.07636 30.3375C10.2126 32.5538 12.0839 33.8213 12.0839 33.8213L15.9914 39.5775C15.9914 39.5775 15.4101 41.1863 14.4089 42.375C13.7339 43.1775 12.3164 44.4225 12.3501 44.91C12.4026 45.6488 13.9326 45.2813 16.1526 45.3863C18.3689 45.4913 24.6539 44.4375 24.6539 44.4375L34.0514 45.0188C34.8951 45.0713 36.7176 45.2025 36.9539 44.6475C37.1001 44.3063 35.6714 43.0725 35.0789 42.0075C34.3139 40.635 33.8376 38.4713 33.8376 38.4713C33.8376 38.4713 35.5814 34.83 36.3201 34.2488C37.0589 33.6675 39.1176 31.08 39.6989 29.7075C40.2801 28.335 40.4901 25.7475 39.2751 24.5325C38.3751 23.6213 37.0101 23.4713 37.0101 23.4713Z" fill="#6E4F44"/>
<path d="M32.8138 7.31626C32.8138 7.31626 33.6051 5.62876 35.1913 4.59751C36.6538 3.64876 38.3863 3.75376 38.5176 3.88501C38.6488 4.01626 38.3151 5.26501 37.7263 6.10126C37.2238 6.81376 36.6951 7.36876 36.7776 7.44751C36.9238 7.59376 37.4226 6.94876 38.0713 6.41626C38.9413 5.70376 40.0776 5.44126 40.2088 5.54626C40.3401 5.65126 40.5238 7.55251 39.6801 9.16126C38.8888 10.665 37.4376 11.6175 37.4376 11.6175L35.4051 8.87251L32.8138 7.31626ZM17.1051 7.12876C17.1051 7.12876 16.1563 5.17501 15.0201 4.01251C13.8838 2.85001 12.1176 2.19001 11.9038 2.40376C11.6901 2.61751 11.7201 3.90751 11.9826 4.75126C12.2451 5.59501 13.0401 6.43876 12.8001 6.60001C12.5638 6.75751 12.1513 5.80126 11.7426 5.35876C11.0826 4.64626 9.89384 4.06501 9.68384 4.19626C9.47384 4.32751 8.97134 6.33376 9.97259 8.18251C10.8613 9.82126 12.1626 11.3513 12.1626 11.3513L15.2263 8.42251L17.1051 7.12876Z" fill="#6E4F44"/>
<path d="M18.1101 41.6475C18.1101 41.6475 17.9226 42.4275 16.9476 43.3013C15.8376 44.295 13.9551 45.5888 15.1513 46.0125C16.3476 46.4363 18.0388 46.4363 19.7976 46.0838C21.5563 45.7313 23.2813 45.2025 24.5151 45.2025C25.7451 45.2025 28.2463 45.66 29.4763 45.8363C30.7063 46.0125 32.2776 46.1663 33.1701 45.9788C33.9988 45.8025 34.3926 45.435 32.9676 43.9538C32.3563 43.32 31.3063 41.5425 31.3063 41.5425L24.1963 42.705L18.1101 41.6475Z" fill="#878787"/>
<path d="M14.1687 23.0288C14.1687 23.0288 12.7249 23.1713 12.1287 23.9775C11.5324 24.7838 10.7224 27.075 10.8612 30.3113C11.0037 33.5475 12.4099 36.2963 14.2399 38.7225C16.0699 41.1525 18.5674 43.6163 24.2337 43.44C29.8999 43.2638 32.8549 41.82 34.3362 39.2175C35.8137 36.6113 37.6437 33.165 37.8199 29.925C37.9962 26.6888 36.3762 23.73 35.8474 23.3438C35.3187 22.9575 24.4099 22.4288 24.4099 22.4288L14.1687 23.0288Z" fill="#875D54"/>
<path d="M16.3138 23.0288C16.3138 23.0288 12.83 26.16 13.4638 31.65C14.0225 36.495 17.4763 41.4713 24.2675 41.505C31.9775 41.5462 34.82 36.0413 35.2138 31.5788C35.6713 26.37 32.7163 23.2012 32.3263 22.8862C31.94 22.5712 16.3138 23.0288 16.3138 23.0288Z" fill="url(#paint0_linear_307_694)"/>
<path d="M24.5862 27.5362C24.5862 27.5362 27.6125 24.3337 30.005 23.7C32.3975 23.0662 35.8475 23.3475 35.8475 23.3475C35.8475 23.3475 37.4562 20.9362 37.5725 16.3087C37.6962 11.34 35.075 9.19875 35.075 9.19875C35.075 9.19875 30.71 8.355 27.6837 11.52C25.1487 14.1712 25.4675 17.3625 25.4675 17.3625L24.1025 17.1337C24.1025 17.1337 24.1212 13.5862 21.62 11.4075C19.1187 9.22875 15.68 8.67 15.68 8.67C15.68 8.67 11.5025 10.9012 11.405 16.0537C11.3 21.5775 13.385 23.1525 13.385 23.1525C13.385 23.1525 16.7712 23.2387 19.7637 24.2962C22.7562 25.3537 24.5862 27.5362 24.5862 27.5362Z" fill="#F2A35B"/>
<path d="M35.4612 16.0613C35.4612 18.7988 33.9875 20.925 30.92 21.27C27.5975 21.645 25.955 19.1138 25.955 16.3763C25.955 13.6388 28.0812 11.4188 30.7062 11.4188C33.3312 11.4188 35.4612 13.3238 35.4612 16.0613ZM22.8687 13.725C24.23 16.2 23.6862 19.8638 21.4175 20.8463C18.7437 22.0088 15.9162 20.8575 14.555 18.3825C13.1937 15.9075 14.0937 13.08 16.3925 11.8163C18.6912 10.5525 21.5075 11.25 22.8687 13.725ZM29.8812 27.4275C30.5075 27.5663 30.83 26.37 31.5537 26.9513C32.2737 27.5325 31.2537 28.6388 30.1287 28.6763C29.0037 28.71 27.7887 27.9375 28.2087 27.1988C28.6325 26.46 29.1612 27.27 29.8812 27.4275ZM32.5587 30.4725C33.455 30.3863 33.8975 29.3813 34.4937 29.9963C35.09 30.6113 34.1225 31.6688 32.6112 31.755C31.0962 31.8413 30.29 31.0688 30.6237 30.4688C30.9575 29.8763 31.4825 30.5775 32.5587 30.4725ZM24.725 30.8775C25.8312 30.9413 25.9025 29.82 26.7125 30.21C27.5225 30.5963 26.5737 32.2838 24.83 32.2688C22.8575 32.25 22.1412 30.8138 22.6812 30.3675C23.4575 29.7338 23.5287 30.8063 24.725 30.8775ZM19.34 27.7275C20.0975 27.6825 19.9737 26.7413 20.9937 27.0938C21.8562 27.3938 20.87 29.0475 19.2162 29.0288C17.7387 29.0138 16.9287 27.78 17.3337 27.4088C18.1362 26.6813 18.4625 27.78 19.34 27.7275ZM16.0325 30.4388C16.685 30.42 16.8237 29.5575 17.5475 29.9813C18.2675 30.405 17.6525 31.7588 15.98 31.7775C14.4837 31.7925 13.9325 30.7538 14.345 30.3C14.9787 29.595 15.3837 30.4575 16.0325 30.4388Z" fill="#D0805F"/>
<path d="M26.9451 16.9237C27.4888 18.6412 29.5213 19.56 31.3438 18.9825C33.1663 18.405 34.1113 16.5787 33.5263 14.7075C32.8626 12.585 30.9351 12.1425 29.1088 12.72C27.2826 13.2937 26.3976 15.2025 26.9451 16.9237ZM16.1563 13.455C15.0801 14.9025 15.2188 16.9237 16.7563 18.0637C18.2938 19.2037 20.3676 19.2825 21.5413 17.7112C22.8763 15.93 22.3176 13.98 20.7838 12.8362C19.2501 11.6925 17.2326 12.0112 16.1563 13.455Z" fill="#FFFEFF"/>
<path d="M32.2925 14.91C32.7425 16.0575 32.3375 17.37 31.1525 17.8387C29.9638 18.3075 28.4488 17.7525 27.995 16.605C27.545 15.4575 28.0288 14.1225 29.2175 13.65C30.5 13.14 31.8388 13.7625 32.2925 14.91ZM21.1175 16.695C20.5063 17.7637 18.8638 18.0862 17.5963 17.2762C16.52 16.59 16.4375 15.18 17.0525 14.1075C17.6638 13.0387 19.0625 12.8587 20.2363 13.35C21.665 13.95 21.7325 15.6262 21.1175 16.695Z" fill="#303232"/>
<path d="M22.7713 17.2912C22.7713 17.2912 22.7113 19.5787 22.7713 20.355C22.8575 21.465 23.0938 22.2637 23.4238 22.9237C23.7763 23.6287 24.305 24.4012 24.5675 24.4012C24.83 24.4012 25.3775 23.655 25.6925 22.9425C25.955 22.3425 26.2363 21.5362 26.36 20.145C26.465 18.9637 26.465 17.5387 26.465 17.5387L22.7713 17.2912Z" fill="#2F2F2F"/>
<path d="M24.5863 15.2175C25.8013 15.1913 26.1538 15.9375 26.4163 16.5712C26.5738 16.95 26.6788 17.7338 26.5738 17.8725C26.4688 18.015 25.5538 18.2438 24.7251 18.2438C23.8963 18.2438 22.5088 17.9438 22.4901 17.715C22.4713 17.4863 22.7001 16.6312 22.9288 16.29C23.3526 15.6562 23.7576 15.2325 24.5863 15.2175Z" fill="#FEB903"/>
<path d="M17.4097 12.4528C16.4693 12.4528 15.5674 12.8264 14.9024 13.4914C14.2374 14.1563 13.8639 15.0582 13.8639 15.9986C13.8639 16.939 14.2374 17.8409 14.9024 18.5059C15.5674 19.1708 16.4693 19.5444 17.4097 19.5444C18.3501 19.5444 19.252 19.1708 19.9169 18.5059C20.5819 17.8409 20.9555 16.939 20.9555 15.9986C20.9555 15.0582 20.5819 14.1563 19.9169 13.4914C19.252 12.8264 18.3501 12.4528 17.4097 12.4528ZM11.5 15.9986C11.5001 14.8766 11.8196 13.7778 12.4212 12.8307C13.0228 11.8836 13.8816 11.1273 14.8971 10.6503C15.9127 10.1732 17.0431 9.99518 18.1561 10.1369C19.2691 10.2786 20.3188 10.7342 21.1824 11.4505C22.0669 10.5783 23.2591 10.0892 24.5013 10.0889C25.7955 10.0889 26.9668 10.609 27.8202 11.4505C28.9471 10.517 30.3802 10.0347 31.8423 10.0971C33.3043 10.1595 34.6912 10.7621 35.7345 11.7883C36.7777 12.8145 37.4032 14.1912 37.4897 15.6521C37.5762 17.1129 37.1176 18.5538 36.2027 19.696C35.2878 20.8381 33.9818 21.6002 32.5373 21.8347C31.0928 22.0692 29.6127 21.7594 28.3835 20.9653C27.1544 20.1713 26.2635 18.9494 25.8834 17.5362C25.5034 16.1231 25.6611 14.6191 26.3262 13.3156C26.1046 13.046 25.826 12.8288 25.5105 12.6796C25.1949 12.5305 24.8503 12.453 24.5013 12.4528C23.7685 12.4528 23.1101 12.7873 22.6764 13.3156C23.0815 14.1117 23.301 14.9892 23.3182 15.8822C23.3355 16.7752 23.1501 17.6606 22.776 18.4717C22.4018 19.2827 21.8487 19.9984 21.1582 20.565C20.4677 21.1316 19.6577 21.5342 18.7892 21.7427C17.9206 21.9512 17.0161 21.9601 16.1437 21.7688C15.2712 21.5774 14.4534 21.1908 13.7519 20.638C13.0503 20.0851 12.4832 19.3804 12.0932 18.5769C11.7032 17.7733 11.5003 16.8918 11.5 15.9986ZM31.5929 12.4528C31.1271 12.4522 30.6657 12.5435 30.2352 12.7215C29.8048 12.8994 29.4136 13.1606 29.0842 13.49C28.7549 13.8194 28.4937 14.2105 28.3157 14.641C28.1378 15.0714 28.0465 15.5328 28.0471 15.9986C28.0471 16.6999 28.255 17.3855 28.6447 17.9686C29.0343 18.5517 29.5881 19.0061 30.236 19.2745C30.8839 19.5429 31.5968 19.6131 32.2846 19.4763C32.9725 19.3395 33.6043 19.0018 34.1002 18.5059C34.596 18.01 34.9338 17.3782 35.0706 16.6904C35.2074 16.0026 35.1372 15.2896 34.8688 14.6417C34.6004 13.9938 34.1459 13.44 33.5628 13.0504C32.9797 12.6608 32.2942 12.4528 31.5929 12.4528Z" fill="#2F2F2F"/>
<g clip-path="url(#clip1_307_694)">
<rect width="28" height="28" rx="8" transform="matrix(-1 0 0 1 48.5 25)" fill="white"/>
<path d="M34.5001 31.8075L34.774 31.8906L45.7115 35.5551L48.1982 36.375L46.7501 36.8387V44.495C47.2725 44.7986 47.6251 45.3525 47.6251 46C47.6251 46.4641 47.4407 46.9092 47.1126 47.2374C46.7844 47.5656 46.3392 47.75 45.8751 47.75C45.411 47.75 44.9659 47.5656 44.6377 47.2374C44.3095 46.9092 44.1251 46.4641 44.1251 46C44.1251 45.3525 44.4777 44.7986 45.0001 44.495V37.4425L43.2501 38.0156V42.5C43.2501 43.2175 42.8126 43.8125 42.2929 44.2237C41.7731 44.6324 41.1274 44.9211 40.3521 45.1801C38.7999 45.6964 36.7541 46 34.5001 46C32.2461 46 30.2004 45.6972 28.6481 45.1792C27.8729 44.9211 27.2271 44.6324 26.7074 44.2229C26.1876 43.8125 25.7501 43.2175 25.7501 42.5V38.0156L23.2887 37.1949L20.802 36.375L23.2896 35.5542L34.2271 31.8906L34.5001 31.8075ZM34.5001 33.6406L26.297 36.375L34.5001 39.1094L42.7032 36.375L34.5001 33.6406ZM41.5001 38.6176L34.7731 40.8594L34.5001 40.9416L34.2262 40.8585L27.5001 38.6167V42.5C27.5001 42.5087 27.4966 42.6102 27.774 42.8281C28.0505 43.0469 28.5466 43.3225 29.1959 43.5395C30.4926 43.9709 32.4045 44.25 34.5001 44.25C36.5957 44.25 38.5076 43.9717 39.8052 43.5386C40.4527 43.3225 40.9497 43.046 41.2262 42.8281C41.5045 42.6094 41.5001 42.5087 41.5001 42.5V38.6176Z" fill="black"/>
</g>
</g>
<defs>
<linearGradient id="paint0_linear_307_694" x1="24.2776" y1="22.8071" x2="24.3935" y2="41.5072" gradientUnits="userSpaceOnUse">
<stop offset="0.05" stop-color="#F5DBB8"/>
<stop offset="0.238" stop-color="#F2D2AF"/>
<stop offset="0.547" stop-color="#E9B996"/>
<stop offset="0.894" stop-color="#DC9673"/>
</linearGradient>
<clipPath id="clip0_307_694">
<rect width="48" height="48" fill="white" transform="translate(0.5)"/>
</clipPath>
<clipPath id="clip1_307_694">
<rect width="28" height="28" rx="8" transform="matrix(-1 0 0 1 48.5 25)" fill="white"/>
</clipPath>
</defs>
</svg>
